<svg aria-roledescription="er" viewBox="0 0 760.8399658203125 730" style="max-width: 760.84px; background-color: white;" xmlns:xlink="http://www.w3.org/1999/xlink" xmlns="http://www.w3.org/2000/svg" width="100%" id="mermaid-0"><style>#mermaid-0{font-family:"trebuchet ms",verdana,arial,sans-serif;font-size:16px;fill:#000000;}#mermaid-0 .error-icon{fill:#552222;}#mermaid-0 .error-text{fill:#552222;stroke:#552222;}#mermaid-0 .edge-thickness-normal{stroke-width:2px;}#mermaid-0 .edge-thickness-thick{stroke-width:3.5px;}#mermaid-0 .edge-pattern-solid{stroke-dasharray:0;}#mermaid-0 .edge-pattern-dashed{stroke-dasharray:3;}#mermaid-0 .edge-pattern-dotted{stroke-dasharray:2;}#mermaid-0 .marker{fill:#000000;stroke:#000000;}#mermaid-0 .marker.cross{stroke:#000000;}#mermaid-0 svg{font-family:"trebuchet ms",verdana,arial,sans-serif;font-size:16px;}#mermaid-0 .entityBox{fill:#cde498;stroke:#13540c;}#mermaid-0 .attributeBoxOdd{fill:#ffffff;stroke:#13540c;}#mermaid-0 .attributeBoxEven{fill:#f2f2f2;stroke:#13540c;}#mermaid-0 .relationshipLabelBox{fill:hsl(78.1578947368, 58.4615384615%, 84.5098039216%);opacity:0.7;background-color:hsl(78.1578947368, 58.4615384615%, 84.5098039216%);}#mermaid-0 .relationshipLabelBox rect{opacity:0.5;}#mermaid-0 .relationshipLine{stroke:#000000;}#mermaid-0 .entityTitleText{text-anchor:middle;font-size:18px;fill:#000000;}#mermaid-0 :root{--mermaid-font-family:"trebuchet ms",verdana,arial,sans-serif;}</style><g/><defs><marker orient="auto" markerHeight="18" markerWidth="18" refY="9" refX="0" id="ONLY_ONE_START"><path d="M9,0 L9,18 M15,0 L15,18" fill="none" stroke="gray"/></marker></defs><defs><marker orient="auto" markerHeight="18" markerWidth="18" refY="9" refX="18" id="ONLY_ONE_END"><path d="M3,0 L3,18 M9,0 L9,18" fill="none" stroke="gray"/></marker></defs><defs><marker orient="auto" markerHeight="18" markerWidth="30" refY="9" refX="0" id="ZERO_OR_ONE_START"><circle r="6" cy="9" cx="21" fill="white" stroke="gray"/><path d="M9,0 L9,18" fill="none" stroke="gray"/></marker></defs><defs><marker orient="auto" markerHeight="18" markerWidth="30" refY="9" refX="30" id="ZERO_OR_ONE_END"><circle r="6" cy="9" cx="9" fill="white" stroke="gray"/><path d="M21,0 L21,18" fill="none" stroke="gray"/></marker></defs><defs><marker orient="auto" markerHeight="36" markerWidth="45" refY="18" refX="18" id="ONE_OR_MORE_START"><path d="M0,18 Q 18,0 36,18 Q 18,36 0,18 M42,9 L42,27" fill="none" stroke="gray"/></marker></defs><defs><marker orient="auto" markerHeight="36" markerWidth="45" refY="18" refX="27" id="ONE_OR_MORE_END"><path d="M3,9 L3,27 M9,18 Q27,0 45,18 Q27,36 9,18" fill="none" stroke="gray"/></marker></defs><defs><marker orient="auto" markerHeight="36" markerWidth="57" refY="18" refX="18" id="ZERO_OR_MORE_START"><circle r="6" cy="18" cx="48" fill="white" stroke="gray"/><path d="M0,18 Q18,0 36,18 Q18,36 0,18" fill="none" stroke="gray"/></marker></defs><defs><marker orient="auto" markerHeight="36" markerWidth="57" refY="18" refX="39" id="ZERO_OR_MORE_END"><circle r="6" cy="18" cx="9" fill="white" stroke="gray"/><path d="M21,18 Q39,0 57,18 Q39,36 21,18" fill="none" stroke="gray"/></marker></defs><path style="stroke: gray; fill: none;" marker-start="url(#ZERO_OR_MORE_START)" marker-end="url(#ONLY_ONE_END)" d="M352.5086364746094,176L352.5086364746094,191.66666666666666C352.5086364746094,207.33333333333334,352.5086364746094,238.66666666666666,361.9611297150453,262.6666666666667C371.41362295548123,286.6666666666667,390.31860943635303,303.3333333333333,399.771102676789,311.6666666666667L409.2235959172249,320" class="er relationshipLine"/><path style="stroke: gray; fill: none;" marker-start="url(#ZERO_OR_MORE_START)" marker-end="url(#ONLY_ONE_END)" d="M497.6989326477051,476L497.6989326477051,484.3333333333333C497.6989326477051,492.6666666666667,497.6989326477051,509.3333333333333,497.6989326477051,526C497.6989326477051,542.6666666666666,497.6989326477051,559.3333333333334,497.6989326477051,567.6666666666666L497.6989326477051,576" class="er relationshipLine"/><path style="stroke: gray; fill: none;" marker-start="url(#ZERO_OR_MORE_START)" marker-end="url(#ONLY_ONE_END)" d="M642.8892288208008,220L642.8892288208008,228.33333333333334C642.8892288208008,236.66666666666666,642.8892288208008,253.33333333333334,633.4367355803648,270C623.984242339929,286.6666666666667,605.0792558590571,303.3333333333333,595.6267626186212,311.6666666666667L586.1742693781853,320" class="er relationshipLine"/><g transform="translate(20,53 )" id="entity-users-87b4d995-1f6d-407f-9110-c4110d0aed9c"><rect height="134" width="140.07876586914062" y="0" x="0" class="er entityBox"/><text style="dominant-baseline: middle; text-anchor: middle; font-size: 12px;" transform="translate(70.03938293457031,12)" y="0" x="0" id="text-entity-users-87b4d995-1f6d-407f-9110-c4110d0aed9c" class="er entityLabel">users</text><rect height="22" width="54.095550537109375" y="24" x="0" class="er attributeBoxOdd"/><text style="dominant-baseline: middle; font-size: 10.2px;" transform="translate(5,35)" y="0" x="0" id="text-entity-users-87b4d995-1f6d-407f-9110-c4110d0aed9c-attr-1-type" class="er entityLabel">Int</text><rect height="22" width="63.2955322265625" y="24" x="54.095550537109375" class="er attributeBoxOdd"/><text style="dominant-baseline: middle; font-size: 10.2px;" transform="translate(59.095550537109375,35)" y="0" x="0" id="text-entity-users-87b4d995-1f6d-407f-9110-c4110d0aed9c-attr-1-name" class="er entityLabel">id</text><rect height="22" width="22.68768310546875" y="24" x="117.39108276367188" class="er attributeBoxOdd"/><text style="dominant-baseline: middle; font-size: 10.2px;" transform="translate(122.39108276367188,35)" y="0" x="0" id="text-entity-users-87b4d995-1f6d-407f-9110-c4110d0aed9c-attr-1-key" class="er entityLabel">PK</text><rect height="22" width="54.095550537109375" y="46" x="0" class="er attributeBoxEven"/><text style="dominant-baseline: middle; font-size: 10.2px;" transform="translate(5,57)" y="0" x="0" id="text-entity-users-87b4d995-1f6d-407f-9110-c4110d0aed9c-attr-2-type" class="er entityLabel">String</text><rect height="22" width="63.2955322265625" y="46" x="54.095550537109375" class="er attributeBoxEven"/><text style="dominant-baseline: middle; font-size: 10.2px;" transform="translate(59.095550537109375,57)" y="0" x="0" id="text-entity-users-87b4d995-1f6d-407f-9110-c4110d0aed9c-attr-2-name" class="er entityLabel">name</text><rect height="22" width="22.68768310546875" y="46" x="117.39108276367188" class="er attributeBoxEven"/><text style="dominant-baseline: middle; font-size: 10.2px;" transform="translate(122.39108276367188,57)" y="0" x="0" id="text-entity-users-87b4d995-1f6d-407f-9110-c4110d0aed9c-attr-2-key" class="er entityLabel"/><rect height="22" width="54.095550537109375" y="68" x="0" class="er attributeBoxOdd"/><text style="dominant-baseline: middle; font-size: 10.2px;" transform="translate(5,79)" y="0" x="0" id="text-entity-users-87b4d995-1f6d-407f-9110-c4110d0aed9c-attr-3-type" class="er entityLabel">String</text><rect height="22" width="63.2955322265625" y="68" x="54.095550537109375" class="er attributeBoxOdd"/><text style="dominant-baseline: middle; font-size: 10.2px;" transform="translate(59.095550537109375,79)" y="0" x="0" id="text-entity-users-87b4d995-1f6d-407f-9110-c4110d0aed9c-attr-3-name" class="er entityLabel">password</text><rect height="22" width="22.68768310546875" y="68" x="117.39108276367188" class="er attributeBoxOdd"/><text style="dominant-baseline: middle; font-size: 10.2px;" transform="translate(122.39108276367188,79)" y="0" x="0" id="text-entity-users-87b4d995-1f6d-407f-9110-c4110d0aed9c-attr-3-key" class="er entityLabel"/><rect height="22" width="54.095550537109375" y="90" x="0" class="er attributeBoxEven"/><text style="dominant-baseline: middle; font-size: 10.2px;" transform="translate(5,101)" y="0" x="0" id="text-entity-users-87b4d995-1f6d-407f-9110-c4110d0aed9c-attr-4-type" class="er entityLabel">DateTime</text><rect height="22" width="63.2955322265625" y="90" x="54.095550537109375" class="er attributeBoxEven"/><text style="dominant-baseline: middle; font-size: 10.2px;" transform="translate(59.095550537109375,101)" y="0" x="0" id="text-entity-users-87b4d995-1f6d-407f-9110-c4110d0aed9c-attr-4-name" class="er entityLabel">created_at</text><rect height="22" width="22.68768310546875" y="90" x="117.39108276367188" class="er attributeBoxEven"/><text style="dominant-baseline: middle; font-size: 10.2px;" transform="translate(122.39108276367188,101)" y="0" x="0" id="text-entity-users-87b4d995-1f6d-407f-9110-c4110d0aed9c-attr-4-key" class="er entityLabel"/><rect height="22" width="54.095550537109375" y="112" x="0" class="er attributeBoxOdd"/><text style="dominant-baseline: middle; font-size: 10.2px;" transform="translate(5,123)" y="0" x="0" id="text-entity-users-87b4d995-1f6d-407f-9110-c4110d0aed9c-attr-5-type" class="er entityLabel">DateTime</text><rect height="22" width="63.2955322265625" y="112" x="54.095550537109375" class="er attributeBoxOdd"/><text style="dominant-baseline: middle; font-size: 10.2px;" transform="translate(59.095550537109375,123)" y="0" x="0" id="text-entity-users-87b4d995-1f6d-407f-9110-c4110d0aed9c-attr-5-name" class="er entityLabel">updated_at</text><rect height="22" width="22.68768310546875" y="112" x="117.39108276367188" class="er attributeBoxOdd"/><text style="dominant-baseline: middle; font-size: 10.2px;" transform="translate(122.39108276367188,123)" y="0" x="0" id="text-entity-users-87b4d995-1f6d-407f-9110-c4110d0aed9c-attr-5-key" class="er entityLabel"/></g><g transform="translate(427.65954971313477,576 )" id="entity-empresas-7ac9218f-575a-4cf1-9dbe-54099aaac6b1"><rect height="134" width="140.07876586914062" y="0" x="0" class="er entityBox"/><text style="dominant-baseline: middle; text-anchor: middle; font-size: 12px;" transform="translate(70.03938293457031,12)" y="0" x="0" id="text-entity-empresas-7ac9218f-575a-4cf1-9dbe-54099aaac6b1" class="er entityLabel">empresas</text><rect height="22" width="54.095550537109375" y="24" x="0" class="er attributeBoxOdd"/><text style="dominant-baseline: middle; font-size: 10.2px;" transform="translate(5,35)" y="0" x="0" id="text-entity-empresas-7ac9218f-575a-4cf1-9dbe-54099aaac6b1-attr-1-type" class="er entityLabel">Int</text><rect height="22" width="63.2955322265625" y="24" x="54.095550537109375" class="er attributeBoxOdd"/><text style="dominant-baseline: middle; font-size: 10.2px;" transform="translate(59.095550537109375,35)" y="0" x="0" id="text-entity-empresas-7ac9218f-575a-4cf1-9dbe-54099aaac6b1-attr-1-name" class="er entityLabel">id</text><rect height="22" width="22.68768310546875" y="24" x="117.39108276367188" class="er attributeBoxOdd"/><text style="dominant-baseline: middle; font-size: 10.2px;" transform="translate(122.39108276367188,35)" y="0" x="0" id="text-entity-empresas-7ac9218f-575a-4cf1-9dbe-54099aaac6b1-attr-1-key" class="er entityLabel">PK</text><rect height="22" width="54.095550537109375" y="46" x="0" class="er attributeBoxEven"/><text style="dominant-baseline: middle; font-size: 10.2px;" transform="translate(5,57)" y="0" x="0" id="text-entity-empresas-7ac9218f-575a-4cf1-9dbe-54099aaac6b1-attr-2-type" class="er entityLabel">String</text><rect height="22" width="63.2955322265625" y="46" x="54.095550537109375" class="er attributeBoxEven"/><text style="dominant-baseline: middle; font-size: 10.2px;" transform="translate(59.095550537109375,57)" y="0" x="0" id="text-entity-empresas-7ac9218f-575a-4cf1-9dbe-54099aaac6b1-attr-2-name" class="er entityLabel">cnpj</text><rect height="22" width="22.68768310546875" y="46" x="117.39108276367188" class="er attributeBoxEven"/><text style="dominant-baseline: middle; font-size: 10.2px;" transform="translate(122.39108276367188,57)" y="0" x="0" id="text-entity-empresas-7ac9218f-575a-4cf1-9dbe-54099aaac6b1-attr-2-key" class="er entityLabel"/><rect height="22" width="54.095550537109375" y="68" x="0" class="er attributeBoxOdd"/><text style="dominant-baseline: middle; font-size: 10.2px;" transform="translate(5,79)" y="0" x="0" id="text-entity-empresas-7ac9218f-575a-4cf1-9dbe-54099aaac6b1-attr-3-type" class="er entityLabel">String</text><rect height="22" width="63.2955322265625" y="68" x="54.095550537109375" class="er attributeBoxOdd"/><text style="dominant-baseline: middle; font-size: 10.2px;" transform="translate(59.095550537109375,79)" y="0" x="0" id="text-entity-empresas-7ac9218f-575a-4cf1-9dbe-54099aaac6b1-attr-3-name" class="er entityLabel">empresa</text><rect height="22" width="22.68768310546875" y="68" x="117.39108276367188" class="er attributeBoxOdd"/><text style="dominant-baseline: middle; font-size: 10.2px;" transform="translate(122.39108276367188,79)" y="0" x="0" id="text-entity-empresas-7ac9218f-575a-4cf1-9dbe-54099aaac6b1-attr-3-key" class="er entityLabel"/><rect height="22" width="54.095550537109375" y="90" x="0" class="er attributeBoxEven"/><text style="dominant-baseline: middle; font-size: 10.2px;" transform="translate(5,101)" y="0" x="0" id="text-entity-empresas-7ac9218f-575a-4cf1-9dbe-54099aaac6b1-attr-4-type" class="er entityLabel">DateTime</text><rect height="22" width="63.2955322265625" y="90" x="54.095550537109375" class="er attributeBoxEven"/><text style="dominant-baseline: middle; font-size: 10.2px;" transform="translate(59.095550537109375,101)" y="0" x="0" id="text-entity-empresas-7ac9218f-575a-4cf1-9dbe-54099aaac6b1-attr-4-name" class="er entityLabel">created_at</text><rect height="22" width="22.68768310546875" y="90" x="117.39108276367188" class="er attributeBoxEven"/><text style="dominant-baseline: middle; font-size: 10.2px;" transform="translate(122.39108276367188,101)" y="0" x="0" id="text-entity-empresas-7ac9218f-575a-4cf1-9dbe-54099aaac6b1-attr-4-key" class="er entityLabel"/><rect height="22" width="54.095550537109375" y="112" x="0" class="er attributeBoxOdd"/><text style="dominant-baseline: middle; font-size: 10.2px;" transform="translate(5,123)" y="0" x="0" id="text-entity-empresas-7ac9218f-575a-4cf1-9dbe-54099aaac6b1-attr-5-type" class="er entityLabel">DateTime</text><rect height="22" width="63.2955322265625" y="112" x="54.095550537109375" class="er attributeBoxOdd"/><text style="dominant-baseline: middle; font-size: 10.2px;" transform="translate(59.095550537109375,123)" y="0" x="0" id="text-entity-empresas-7ac9218f-575a-4cf1-9dbe-54099aaac6b1-attr-5-name" class="er entityLabel">updated_at</text><rect height="22" width="22.68768310546875" y="112" x="117.39108276367188" class="er attributeBoxOdd"/><text style="dominant-baseline: middle; font-size: 10.2px;" transform="translate(122.39108276367188,123)" y="0" x="0" id="text-entity-empresas-7ac9218f-575a-4cf1-9dbe-54099aaac6b1-attr-5-key" class="er entityLabel"/></g><g transform="translate(260.0787658691406,64 )" id="entity-transporte-75f1e71b-2297-4b7e-bdae-9a18cff4afc2"><rect height="112" width="184.8597412109375" y="0" x="0" class="er entityBox"/><text style="dominant-baseline: middle; text-anchor: middle; font-size: 12px;" transform="translate(92.42987060546875,12)" y="0" x="0" id="text-entity-transporte-75f1e71b-2297-4b7e-bdae-9a18cff4afc2" class="er entityLabel">transporte</text><rect height="22" width="37.39605712890625" y="24" x="0" class="er attributeBoxOdd"/><text style="dominant-baseline: middle; font-size: 10.2px;" transform="translate(5,35)" y="0" x="0" id="text-entity-transporte-75f1e71b-2297-4b7e-bdae-9a18cff4afc2-attr-1-type" class="er entityLabel">Int</text><rect height="22" width="77.56346130371094" y="24" x="37.39605712890625" class="er attributeBoxOdd"/><text style="dominant-baseline: middle; font-size: 10.2px;" transform="translate(42.39605712890625,35)" y="0" x="0" id="text-entity-transporte-75f1e71b-2297-4b7e-bdae-9a18cff4afc2-attr-1-name" class="er entityLabel">id</text><rect height="22" width="22.68768310546875" y="24" x="114.95951843261719" class="er attributeBoxOdd"/><text style="dominant-baseline: middle; font-size: 10.2px;" transform="translate(119.95951843261719,35)" y="0" x="0" id="text-entity-transporte-75f1e71b-2297-4b7e-bdae-9a18cff4afc2-attr-1-key" class="er entityLabel">PK</text><rect height="22" width="47.21253967285156" y="24" x="137.64720153808594" class="er attributeBoxOdd"/><text style="dominant-baseline: middle; font-size: 10.2px;" transform="translate(142.64720153808594,35)" y="0" x="0" id="text-entity-transporte-75f1e71b-2297-4b7e-bdae-9a18cff4afc2-attr-1-comment" class="er entityLabel"/><rect height="22" width="37.39605712890625" y="46" x="0" class="er attributeBoxEven"/><text style="dominant-baseline: middle; font-size: 10.2px;" transform="translate(5,57)" y="0" x="0" id="text-entity-transporte-75f1e71b-2297-4b7e-bdae-9a18cff4afc2-attr-2-type" class="er entityLabel">String</text><rect height="22" width="77.56346130371094" y="46" x="37.39605712890625" class="er attributeBoxEven"/><text style="dominant-baseline: middle; font-size: 10.2px;" transform="translate(42.39605712890625,57)" y="0" x="0" id="text-entity-transporte-75f1e71b-2297-4b7e-bdae-9a18cff4afc2-attr-2-name" class="er entityLabel">placa</text><rect height="22" width="22.68768310546875" y="46" x="114.95951843261719" class="er attributeBoxEven"/><text style="dominant-baseline: middle; font-size: 10.2px;" transform="translate(119.95951843261719,57)" y="0" x="0" id="text-entity-transporte-75f1e71b-2297-4b7e-bdae-9a18cff4afc2-attr-2-key" class="er entityLabel"/><rect height="22" width="47.21253967285156" y="46" x="137.64720153808594" class="er attributeBoxEven"/><text style="dominant-baseline: middle; font-size: 10.2px;" transform="translate(142.64720153808594,57)" y="0" x="0" id="text-entity-transporte-75f1e71b-2297-4b7e-bdae-9a18cff4afc2-attr-2-comment" class="er entityLabel">nullable</text><rect height="22" width="37.39605712890625" y="68" x="0" class="er attributeBoxOdd"/><text style="dominant-baseline: middle; font-size: 10.2px;" transform="translate(5,79)" y="0" x="0" id="text-entity-transporte-75f1e71b-2297-4b7e-bdae-9a18cff4afc2-attr-3-type" class="er entityLabel">String</text><rect height="22" width="77.56346130371094" y="68" x="37.39605712890625" class="er attributeBoxOdd"/><text style="dominant-baseline: middle; font-size: 10.2px;" transform="translate(42.39605712890625,79)" y="0" x="0" id="text-entity-transporte-75f1e71b-2297-4b7e-bdae-9a18cff4afc2-attr-3-name" class="er entityLabel">tipo_tranporte</text><rect height="22" width="22.68768310546875" y="68" x="114.95951843261719" class="er attributeBoxOdd"/><text style="dominant-baseline: middle; font-size: 10.2px;" transform="translate(119.95951843261719,79)" y="0" x="0" id="text-entity-transporte-75f1e71b-2297-4b7e-bdae-9a18cff4afc2-attr-3-key" class="er entityLabel"/><rect height="22" width="47.21253967285156" y="68" x="137.64720153808594" class="er attributeBoxOdd"/><text style="dominant-baseline: middle; font-size: 10.2px;" transform="translate(142.64720153808594,79)" y="0" x="0" id="text-entity-transporte-75f1e71b-2297-4b7e-bdae-9a18cff4afc2-attr-3-comment" class="er entityLabel">nullable</text><rect height="22" width="37.39605712890625" y="90" x="0" class="er attributeBoxEven"/><text style="dominant-baseline: middle; font-size: 10.2px;" transform="translate(5,101)" y="0" x="0" id="text-entity-transporte-75f1e71b-2297-4b7e-bdae-9a18cff4afc2-attr-4-type" class="er entityLabel">String</text><rect height="22" width="77.56346130371094" y="90" x="37.39605712890625" class="er attributeBoxEven"/><text style="dominant-baseline: middle; font-size: 10.2px;" transform="translate(42.39605712890625,101)" y="0" x="0" id="text-entity-transporte-75f1e71b-2297-4b7e-bdae-9a18cff4afc2-attr-4-name" class="er entityLabel">modelo</text><rect height="22" width="22.68768310546875" y="90" x="114.95951843261719" class="er attributeBoxEven"/><text style="dominant-baseline: middle; font-size: 10.2px;" transform="translate(119.95951843261719,101)" y="0" x="0" id="text-entity-transporte-75f1e71b-2297-4b7e-bdae-9a18cff4afc2-attr-4-key" class="er entityLabel"/><rect height="22" width="47.21253967285156" y="90" x="137.64720153808594" class="er attributeBoxEven"/><text style="dominant-baseline: middle; font-size: 10.2px;" transform="translate(142.64720153808594,101)" y="0" x="0" id="text-entity-transporte-75f1e71b-2297-4b7e-bdae-9a18cff4afc2-attr-4-comment" class="er entityLabel">nullable</text></g><g transform="translate(404.053279876709,320 )" id="entity-cadastros-08ba526d-1104-44a4-9869-382b3c5f3b87"><rect height="156" width="187.2913055419922" y="0" x="0" class="er entityBox"/><text style="dominant-baseline: middle; text-anchor: middle; font-size: 12px;" transform="translate(93.6456527709961,12)" y="0" x="0" id="text-entity-cadastros-08ba526d-1104-44a4-9869-382b3c5f3b87" class="er entityLabel">cadastros</text><rect height="22" width="54.095550537109375" y="24" x="0" class="er attributeBoxOdd"/><text style="dominant-baseline: middle; font-size: 10.2px;" transform="translate(5,35)" y="0" x="0" id="text-entity-cadastros-08ba526d-1104-44a4-9869-382b3c5f3b87-attr-1-type" class="er entityLabel">Int</text><rect height="22" width="63.2955322265625" y="24" x="54.095550537109375" class="er attributeBoxOdd"/><text style="dominant-baseline: middle; font-size: 10.2px;" transform="translate(59.095550537109375,35)" y="0" x="0" id="text-entity-cadastros-08ba526d-1104-44a4-9869-382b3c5f3b87-attr-1-name" class="er entityLabel">id</text><rect height="22" width="22.68768310546875" y="24" x="117.39108276367188" class="er attributeBoxOdd"/><text style="dominant-baseline: middle; font-size: 10.2px;" transform="translate(122.39108276367188,35)" y="0" x="0" id="text-entity-cadastros-08ba526d-1104-44a4-9869-382b3c5f3b87-attr-1-key" class="er entityLabel">PK</text><rect height="22" width="47.21253967285156" y="24" x="140.07876586914062" class="er attributeBoxOdd"/><text style="dominant-baseline: middle; font-size: 10.2px;" transform="translate(145.07876586914062,35)" y="0" x="0" id="text-entity-cadastros-08ba526d-1104-44a4-9869-382b3c5f3b87-attr-1-comment" class="er entityLabel"/><rect height="22" width="54.095550537109375" y="46" x="0" class="er attributeBoxEven"/><text style="dominant-baseline: middle; font-size: 10.2px;" transform="translate(5,57)" y="0" x="0" id="text-entity-cadastros-08ba526d-1104-44a4-9869-382b3c5f3b87-attr-2-type" class="er entityLabel">String</text><rect height="22" width="63.2955322265625" y="46" x="54.095550537109375" class="er attributeBoxEven"/><text style="dominant-baseline: middle; font-size: 10.2px;" transform="translate(59.095550537109375,57)" y="0" x="0" id="text-entity-cadastros-08ba526d-1104-44a4-9869-382b3c5f3b87-attr-2-name" class="er entityLabel">nome</text><rect height="22" width="22.68768310546875" y="46" x="117.39108276367188" class="er attributeBoxEven"/><text style="dominant-baseline: middle; font-size: 10.2px;" transform="translate(122.39108276367188,57)" y="0" x="0" id="text-entity-cadastros-08ba526d-1104-44a4-9869-382b3c5f3b87-attr-2-key" class="er entityLabel"/><rect height="22" width="47.21253967285156" y="46" x="140.07876586914062" class="er attributeBoxEven"/><text style="dominant-baseline: middle; font-size: 10.2px;" transform="translate(145.07876586914062,57)" y="0" x="0" id="text-entity-cadastros-08ba526d-1104-44a4-9869-382b3c5f3b87-attr-2-comment" class="er entityLabel"/><rect height="22" width="54.095550537109375" y="68" x="0" class="er attributeBoxOdd"/><text style="dominant-baseline: middle; font-size: 10.2px;" transform="translate(5,79)" y="0" x="0" id="text-entity-cadastros-08ba526d-1104-44a4-9869-382b3c5f3b87-attr-3-type" class="er entityLabel">String</text><rect height="22" width="63.2955322265625" y="68" x="54.095550537109375" class="er attributeBoxOdd"/><text style="dominant-baseline: middle; font-size: 10.2px;" transform="translate(59.095550537109375,79)" y="0" x="0" id="text-entity-cadastros-08ba526d-1104-44a4-9869-382b3c5f3b87-attr-3-name" class="er entityLabel">matricula</text><rect height="22" width="22.68768310546875" y="68" x="117.39108276367188" class="er attributeBoxOdd"/><text style="dominant-baseline: middle; font-size: 10.2px;" transform="translate(122.39108276367188,79)" y="0" x="0" id="text-entity-cadastros-08ba526d-1104-44a4-9869-382b3c5f3b87-attr-3-key" class="er entityLabel"/><rect height="22" width="47.21253967285156" y="68" x="140.07876586914062" class="er attributeBoxOdd"/><text style="dominant-baseline: middle; font-size: 10.2px;" transform="translate(145.07876586914062,79)" y="0" x="0" id="text-entity-cadastros-08ba526d-1104-44a4-9869-382b3c5f3b87-attr-3-comment" class="er entityLabel">nullable</text><rect height="22" width="54.095550537109375" y="90" x="0" class="er attributeBoxEven"/><text style="dominant-baseline: middle; font-size: 10.2px;" transform="translate(5,101)" y="0" x="0" id="text-entity-cadastros-08ba526d-1104-44a4-9869-382b3c5f3b87-attr-4-type" class="er entityLabel">String</text><rect height="22" width="63.2955322265625" y="90" x="54.095550537109375" class="er attributeBoxEven"/><text style="dominant-baseline: middle; font-size: 10.2px;" transform="translate(59.095550537109375,101)" y="0" x="0" id="text-entity-cadastros-08ba526d-1104-44a4-9869-382b3c5f3b87-attr-4-name" class="er entityLabel">cpf</text><rect height="22" width="22.68768310546875" y="90" x="117.39108276367188" class="er attributeBoxEven"/><text style="dominant-baseline: middle; font-size: 10.2px;" transform="translate(122.39108276367188,101)" y="0" x="0" id="text-entity-cadastros-08ba526d-1104-44a4-9869-382b3c5f3b87-attr-4-key" class="er entityLabel"/><rect height="22" width="47.21253967285156" y="90" x="140.07876586914062" class="er attributeBoxEven"/><text style="dominant-baseline: middle; font-size: 10.2px;" transform="translate(145.07876586914062,101)" y="0" x="0" id="text-entity-cadastros-08ba526d-1104-44a4-9869-382b3c5f3b87-attr-4-comment" class="er entityLabel"/><rect height="22" width="54.095550537109375" y="112" x="0" class="er attributeBoxOdd"/><text style="dominant-baseline: middle; font-size: 10.2px;" transform="translate(5,123)" y="0" x="0" id="text-entity-cadastros-08ba526d-1104-44a4-9869-382b3c5f3b87-attr-5-type" class="er entityLabel">DateTime</text><rect height="22" width="63.2955322265625" y="112" x="54.095550537109375" class="er attributeBoxOdd"/><text style="dominant-baseline: middle; font-size: 10.2px;" transform="translate(59.095550537109375,123)" y="0" x="0" id="text-entity-cadastros-08ba526d-1104-44a4-9869-382b3c5f3b87-attr-5-name" class="er entityLabel">created_at</text><rect height="22" width="22.68768310546875" y="112" x="117.39108276367188" class="er attributeBoxOdd"/><text style="dominant-baseline: middle; font-size: 10.2px;" transform="translate(122.39108276367188,123)" y="0" x="0" id="text-entity-cadastros-08ba526d-1104-44a4-9869-382b3c5f3b87-attr-5-key" class="er entityLabel"/><rect height="22" width="47.21253967285156" y="112" x="140.07876586914062" class="er attributeBoxOdd"/><text style="dominant-baseline: middle; font-size: 10.2px;" transform="translate(145.07876586914062,123)" y="0" x="0" id="text-entity-cadastros-08ba526d-1104-44a4-9869-382b3c5f3b87-attr-5-comment" class="er entityLabel"/><rect height="22" width="54.095550537109375" y="134" x="0" class="er attributeBoxEven"/><text style="dominant-baseline: middle; font-size: 10.2px;" transform="translate(5,145)" y="0" x="0" id="text-entity-cadastros-08ba526d-1104-44a4-9869-382b3c5f3b87-attr-6-type" class="er entityLabel">DateTime</text><rect height="22" width="63.2955322265625" y="134" x="54.095550537109375" class="er attributeBoxEven"/><text style="dominant-baseline: middle; font-size: 10.2px;" transform="translate(59.095550537109375,145)" y="0" x="0" id="text-entity-cadastros-08ba526d-1104-44a4-9869-382b3c5f3b87-attr-6-name" class="er entityLabel">updated_at</text><rect height="22" width="22.68768310546875" y="134" x="117.39108276367188" class="er attributeBoxEven"/><text style="dominant-baseline: middle; font-size: 10.2px;" transform="translate(122.39108276367188,145)" y="0" x="0" id="text-entity-cadastros-08ba526d-1104-44a4-9869-382b3c5f3b87-attr-6-key" class="er entityLabel"/><rect height="22" width="47.21253967285156" y="134" x="140.07876586914062" class="er attributeBoxEven"/><text style="dominant-baseline: middle; font-size: 10.2px;" transform="translate(145.07876586914062,145)" y="0" x="0" id="text-entity-cadastros-08ba526d-1104-44a4-9869-382b3c5f3b87-attr-6-comment" class="er entityLabel"/></g><g transform="translate(544.9385070800781,20 )" id="entity-registros-d99b2b90-185f-4af8-8515-87c458a3b0d1"><rect height="200" width="195.9014434814453" y="0" x="0" class="er entityBox"/><text style="dominant-baseline: middle; text-anchor: middle; font-size: 12px;" transform="translate(97.95072174072266,12)" y="0" x="0" id="text-entity-registros-d99b2b90-185f-4af8-8515-87c458a3b0d1" class="er entityLabel">registros</text><rect height="22" width="54.095550537109375" y="24" x="0" class="er attributeBoxOdd"/><text style="dominant-baseline: middle; font-size: 10.2px;" transform="translate(5,35)" y="0" x="0" id="text-entity-registros-d99b2b90-185f-4af8-8515-87c458a3b0d1-attr-1-type" class="er entityLabel">String</text><rect height="22" width="71.90567016601562" y="24" x="54.095550537109375" class="er attributeBoxOdd"/><text style="dominant-baseline: middle; font-size: 10.2px;" transform="translate(59.095550537109375,35)" y="0" x="0" id="text-entity-registros-d99b2b90-185f-4af8-8515-87c458a3b0d1-attr-1-name" class="er entityLabel">id</text><rect height="22" width="22.68768310546875" y="24" x="126.001220703125" class="er attributeBoxOdd"/><text style="dominant-baseline: middle; font-size: 10.2px;" transform="translate(131.001220703125,35)" y="0" x="0" id="text-entity-registros-d99b2b90-185f-4af8-8515-87c458a3b0d1-attr-1-key" class="er entityLabel">PK</text><rect height="22" width="47.21253967285156" y="24" x="148.68890380859375" class="er attributeBoxOdd"/><text style="dominant-baseline: middle; font-size: 10.2px;" transform="translate(153.68890380859375,35)" y="0" x="0" id="text-entity-registros-d99b2b90-185f-4af8-8515-87c458a3b0d1-attr-1-comment" class="er entityLabel"/><rect height="22" width="54.095550537109375" y="46" x="0" class="er attributeBoxEven"/><text style="dominant-baseline: middle; font-size: 10.2px;" transform="translate(5,57)" y="0" x="0" id="text-entity-registros-d99b2b90-185f-4af8-8515-87c458a3b0d1-attr-2-type" class="er entityLabel">String</text><rect height="22" width="71.90567016601562" y="46" x="54.095550537109375" class="er attributeBoxEven"/><text style="dominant-baseline: middle; font-size: 10.2px;" transform="translate(59.095550537109375,57)" y="0" x="0" id="text-entity-registros-d99b2b90-185f-4af8-8515-87c458a3b0d1-attr-2-name" class="er entityLabel">hora_entrada</text><rect height="22" width="22.68768310546875" y="46" x="126.001220703125" class="er attributeBoxEven"/><text style="dominant-baseline: middle; font-size: 10.2px;" transform="translate(131.001220703125,57)" y="0" x="0" id="text-entity-registros-d99b2b90-185f-4af8-8515-87c458a3b0d1-attr-2-key" class="er entityLabel"/><rect height="22" width="47.21253967285156" y="46" x="148.68890380859375" class="er attributeBoxEven"/><text style="dominant-baseline: middle; font-size: 10.2px;" transform="translate(153.68890380859375,57)" y="0" x="0" id="text-entity-registros-d99b2b90-185f-4af8-8515-87c458a3b0d1-attr-2-comment" class="er entityLabel">nullable</text><rect height="22" width="54.095550537109375" y="68" x="0" class="er attributeBoxOdd"/><text style="dominant-baseline: middle; font-size: 10.2px;" transform="translate(5,79)" y="0" x="0" id="text-entity-registros-d99b2b90-185f-4af8-8515-87c458a3b0d1-attr-3-type" class="er entityLabel">String</text><rect height="22" width="71.90567016601562" y="68" x="54.095550537109375" class="er attributeBoxOdd"/><text style="dominant-baseline: middle; font-size: 10.2px;" transform="translate(59.095550537109375,79)" y="0" x="0" id="text-entity-registros-d99b2b90-185f-4af8-8515-87c458a3b0d1-attr-3-name" class="er entityLabel">hora_saida</text><rect height="22" width="22.68768310546875" y="68" x="126.001220703125" class="er attributeBoxOdd"/><text style="dominant-baseline: middle; font-size: 10.2px;" transform="translate(131.001220703125,79)" y="0" x="0" id="text-entity-registros-d99b2b90-185f-4af8-8515-87c458a3b0d1-attr-3-key" class="er entityLabel"/><rect height="22" width="47.21253967285156" y="68" x="148.68890380859375" class="er attributeBoxOdd"/><text style="dominant-baseline: middle; font-size: 10.2px;" transform="translate(153.68890380859375,79)" y="0" x="0" id="text-entity-registros-d99b2b90-185f-4af8-8515-87c458a3b0d1-attr-3-comment" class="er entityLabel">nullable</text><rect height="22" width="54.095550537109375" y="90" x="0" class="er attributeBoxEven"/><text style="dominant-baseline: middle; font-size: 10.2px;" transform="translate(5,101)" y="0" x="0" id="text-entity-registros-d99b2b90-185f-4af8-8515-87c458a3b0d1-attr-4-type" class="er entityLabel">DateTime</text><rect height="22" width="71.90567016601562" y="90" x="54.095550537109375" class="er attributeBoxEven"/><text style="dominant-baseline: middle; font-size: 10.2px;" transform="translate(59.095550537109375,101)" y="0" x="0" id="text-entity-registros-d99b2b90-185f-4af8-8515-87c458a3b0d1-attr-4-name" class="er entityLabel">data_registro</text><rect height="22" width="22.68768310546875" y="90" x="126.001220703125" class="er attributeBoxEven"/><text style="dominant-baseline: middle; font-size: 10.2px;" transform="translate(131.001220703125,101)" y="0" x="0" id="text-entity-registros-d99b2b90-185f-4af8-8515-87c458a3b0d1-attr-4-key" class="er entityLabel"/><rect height="22" width="47.21253967285156" y="90" x="148.68890380859375" class="er attributeBoxEven"/><text style="dominant-baseline: middle; font-size: 10.2px;" transform="translate(153.68890380859375,101)" y="0" x="0" id="text-entity-registros-d99b2b90-185f-4af8-8515-87c458a3b0d1-attr-4-comment" class="er entityLabel"/><rect height="22" width="54.095550537109375" y="112" x="0" class="er attributeBoxOdd"/><text style="dominant-baseline: middle; font-size: 10.2px;" transform="translate(5,123)" y="0" x="0" id="text-entity-registros-d99b2b90-185f-4af8-8515-87c458a3b0d1-attr-5-type" class="er entityLabel">String</text><rect height="22" width="71.90567016601562" y="112" x="54.095550537109375" class="er attributeBoxOdd"/><text style="dominant-baseline: middle; font-size: 10.2px;" transform="translate(59.095550537109375,123)" y="0" x="0" id="text-entity-registros-d99b2b90-185f-4af8-8515-87c458a3b0d1-attr-5-name" class="er entityLabel">observacao</text><rect height="22" width="22.68768310546875" y="112" x="126.001220703125" class="er attributeBoxOdd"/><text style="dominant-baseline: middle; font-size: 10.2px;" transform="translate(131.001220703125,123)" y="0" x="0" id="text-entity-registros-d99b2b90-185f-4af8-8515-87c458a3b0d1-attr-5-key" class="er entityLabel"/><rect height="22" width="47.21253967285156" y="112" x="148.68890380859375" class="er attributeBoxOdd"/><text style="dominant-baseline: middle; font-size: 10.2px;" transform="translate(153.68890380859375,123)" y="0" x="0" id="text-entity-registros-d99b2b90-185f-4af8-8515-87c458a3b0d1-attr-5-comment" class="er entityLabel">nullable</text><rect height="22" width="54.095550537109375" y="134" x="0" class="er attributeBoxEven"/><text style="dominant-baseline: middle; font-size: 10.2px;" transform="translate(5,145)" y="0" x="0" id="text-entity-registros-d99b2b90-185f-4af8-8515-87c458a3b0d1-attr-6-type" class="er entityLabel">Boolean</text><rect height="22" width="71.90567016601562" y="134" x="54.095550537109375" class="er attributeBoxEven"/><text style="dominant-baseline: middle; font-size: 10.2px;" transform="translate(59.095550537109375,145)" y="0" x="0" id="text-entity-registros-d99b2b90-185f-4af8-8515-87c458a3b0d1-attr-6-name" class="er entityLabel">status</text><rect height="22" width="22.68768310546875" y="134" x="126.001220703125" class="er attributeBoxEven"/><text style="dominant-baseline: middle; font-size: 10.2px;" transform="translate(131.001220703125,145)" y="0" x="0" id="text-entity-registros-d99b2b90-185f-4af8-8515-87c458a3b0d1-attr-6-key" class="er entityLabel"/><rect height="22" width="47.21253967285156" y="134" x="148.68890380859375" class="er attributeBoxEven"/><text style="dominant-baseline: middle; font-size: 10.2px;" transform="translate(153.68890380859375,145)" y="0" x="0" id="text-entity-registros-d99b2b90-185f-4af8-8515-87c458a3b0d1-attr-6-comment" class="er entityLabel"/><rect height="22" width="54.095550537109375" y="156" x="0" class="er attributeBoxOdd"/><text style="dominant-baseline: middle; font-size: 10.2px;" transform="translate(5,167)" y="0" x="0" id="text-entity-registros-d99b2b90-185f-4af8-8515-87c458a3b0d1-attr-7-type" class="er entityLabel">DateTime</text><rect height="22" width="71.90567016601562" y="156" x="54.095550537109375" class="er attributeBoxOdd"/><text style="dominant-baseline: middle; font-size: 10.2px;" transform="translate(59.095550537109375,167)" y="0" x="0" id="text-entity-registros-d99b2b90-185f-4af8-8515-87c458a3b0d1-attr-7-name" class="er entityLabel">created_at</text><rect height="22" width="22.68768310546875" y="156" x="126.001220703125" class="er attributeBoxOdd"/><text style="dominant-baseline: middle; font-size: 10.2px;" transform="translate(131.001220703125,167)" y="0" x="0" id="text-entity-registros-d99b2b90-185f-4af8-8515-87c458a3b0d1-attr-7-key" class="er entityLabel"/><rect height="22" width="47.21253967285156" y="156" x="148.68890380859375" class="er attributeBoxOdd"/><text style="dominant-baseline: middle; font-size: 10.2px;" transform="translate(153.68890380859375,167)" y="0" x="0" id="text-entity-registros-d99b2b90-185f-4af8-8515-87c458a3b0d1-attr-7-comment" class="er entityLabel"/><rect height="22" width="54.095550537109375" y="178" x="0" class="er attributeBoxEven"/><text style="dominant-baseline: middle; font-size: 10.2px;" transform="translate(5,189)" y="0" x="0" id="text-entity-registros-d99b2b90-185f-4af8-8515-87c458a3b0d1-attr-8-type" class="er entityLabel">DateTime</text><rect height="22" width="71.90567016601562" y="178" x="54.095550537109375" class="er attributeBoxEven"/><text style="dominant-baseline: middle; font-size: 10.2px;" transform="translate(59.095550537109375,189)" y="0" x="0" id="text-entity-registros-d99b2b90-185f-4af8-8515-87c458a3b0d1-attr-8-name" class="er entityLabel">updated_at</text><rect height="22" width="22.68768310546875" y="178" x="126.001220703125" class="er attributeBoxEven"/><text style="dominant-baseline: middle; font-size: 10.2px;" transform="translate(131.001220703125,189)" y="0" x="0" id="text-entity-registros-d99b2b90-185f-4af8-8515-87c458a3b0d1-attr-8-key" class="er entityLabel"/><rect height="22" width="47.21253967285156" y="178" x="148.68890380859375" class="er attributeBoxEven"/><text style="dominant-baseline: middle; font-size: 10.2px;" transform="translate(153.68890380859375,189)" y="0" x="0" id="text-entity-registros-d99b2b90-185f-4af8-8515-87c458a3b0d1-attr-8-comment" class="er entityLabel"/></g><rect height="14" width="50.955078125" y="249.73333740234375" x="334.37786865234375" class="er relationshipLabelBox"/><text style="text-anchor: middle; dominant-baseline: middle; font-size: 12px;" y="256.73333740234375" x="359.85540771484375" id="rel1" class="er relationshipLabel">cadastros</text><rect height="14" width="46.2578125" y="519" x="474.5700378417969" class="er relationshipLabelBox"/><text style="text-anchor: middle; dominant-baseline: middle; font-size: 12px;" y="526" x="497.6989440917969" id="rel2" class="er relationshipLabel">empresa</text><rect height="14" width="50.955078125" y="270.3605651855469" x="603.2112426757812" class="er relationshipLabelBox"/><text style="text-anchor: middle; dominant-baseline: middle; font-size: 12px;" y="277.3605651855469" x="628.6887817382812" id="rel3" class="er relationshipLabel">cadastros</text></svg>